<mxGraphModel dx="1990" dy="761" grid="1" gridSize="10" guides="1" tooltips="1" connect="1" arrows="1" fold="1" page="1" pageScale="1" pageWidth="827" pageHeight="1169" math="0" shadow="0"><root><mxCell id="0"/><mxCell id="1" parent="0"/><mxCell id="Uy-U2TZosP5Rp6WqDtDl-4" value="Мониторинг успеваемости и посещаемости класса" style="ellipse;whiteSpace=wrap;html=1;" parent="1" vertex="1"><mxGeometry x="10" y="300" width="170" height="60" as="geometry"/></mxCell><mxCell id="Uy-U2TZosP5Rp6WqDtDl-7" value="" style="endArrow=classic;html=1;rounded=0;exitX=0;exitY=0.3333333333333333;exitDx=0;exitDy=0;exitPerimeter=0;entryX=1;entryY=0.5;entryDx=0;entryDy=0;" parent="1" source="Uy-U2TZosP5Rp6WqDtDl-8" target="Uy-U2TZosP5Rp6WqDtDl-4" edge="1"><mxGeometry width="50" height="50" relative="1" as="geometry"><mxPoint x="70" y="500" as="sourcePoint"/><mxPoint x="180" y="460" as="targetPoint"/></mxGeometry></mxCell><mxCell id="Uy-U2TZosP5Rp6WqDtDl-8" value="Учитель" style="shape=umlActor;verticalLabelPosition=bottom;verticalAlign=top;html=1;outlineConnect=0;" parent="1" vertex="1"><mxGeometry x="750" y="300" width="30" height="60" as="geometry"/></mxCell><mxCell id="Uy-U2TZosP5Rp6WqDtDl-9" value="Ввод текущих оценок, тем уроков, домашних заданий" style="ellipse;whiteSpace=wrap;html=1;" parent="1" vertex="1"><mxGeometry x="10" y="220" width="170" height="60" as="geometry"/></mxCell><mxCell id="Uy-U2TZosP5Rp6WqDtDl-11" value="Добавление домашних заданий" style="ellipse;whiteSpace=wrap;html=1;" parent="1" vertex="1"><mxGeometry x="10" y="385" width="170" height="60" as="geometry"/></mxCell><mxCell id="Uy-U2TZosP5Rp6WqDtDl-13" value="" style="endArrow=classic;html=1;rounded=0;exitX=0;exitY=0.3333333333333333;exitDx=0;exitDy=0;exitPerimeter=0;entryX=1;entryY=0.5;entryDx=0;entryDy=0;" parent="1" source="Uy-U2TZosP5Rp6WqDtDl-8" target="Uy-U2TZosP5Rp6WqDtDl-11" edge="1"><mxGeometry width="50" height="50" relative="1" as="geometry"><mxPoint x="490" y="140" as="sourcePoint"/><mxPoint x="540" y="90" as="targetPoint"/></mxGeometry></mxCell><mxCell id="Uy-U2TZosP5Rp6WqDtDl-14" value="" style="endArrow=classic;html=1;rounded=0;exitX=0;exitY=0.3333333333333333;exitDx=0;exitDy=0;exitPerimeter=0;entryX=1;entryY=0.5;entryDx=0;entryDy=0;" parent="1" source="Uy-U2TZosP5Rp6WqDtDl-8" target="Uy-U2TZosP5Rp6WqDtDl-9" edge="1"><mxGeometry width="50" height="50" relative="1" as="geometry"><mxPoint x="620" y="70" as="sourcePoint"/><mxPoint x="455" y="270" as="targetPoint"/></mxGeometry></mxCell><mxCell id="Uy-U2TZosP5Rp6WqDtDl-24" value="Администратор" style="shape=umlActor;verticalLabelPosition=bottom;verticalAlign=top;html=1;" parent="1" vertex="1"><mxGeometry x="760" y="60" width="30" height="60" as="geometry"/></mxCell><mxCell id="Uy-U2TZosP5Rp6WqDtDl-25" value="Управление учетными записями" style="ellipse;whiteSpace=wrap;html=1;" parent="1" vertex="1"><mxGeometry x="390" y="30" width="170" height="60" as="geometry"/></mxCell><mxCell id="Uy-U2TZosP5Rp6WqDtDl-26" value="Настройка системы" style="ellipse;whiteSpace=wrap;html=1;" parent="1" vertex="1"><mxGeometry x="390" y="110" width="170" height="60" as="geometry"/></mxCell><mxCell id="Uy-U2TZosP5Rp6WqDtDl-28" value="" style="endArrow=classic;html=1;rounded=0;exitX=0;exitY=0.3333333333333333;exitDx=0;exitDy=0;exitPerimeter=0;entryX=1;entryY=0.5;entryDx=0;entryDy=0;" parent="1" source="Uy-U2TZosP5Rp6WqDtDl-24" target="Uy-U2TZosP5Rp6WqDtDl-25" edge="1"><mxGeometry width="50" height="50" relative="1" as="geometry"><mxPoint x="590" y="180" as="sourcePoint"/><mxPoint x="640" y="130" as="targetPoint"/></mxGeometry></mxCell><mxCell id="Uy-U2TZosP5Rp6WqDtDl-29" value="" style="endArrow=classic;html=1;rounded=0;exitX=0;exitY=0.3333333333333333;exitDx=0;exitDy=0;exitPerimeter=0;entryX=1;entryY=0.5;entryDx=0;entryDy=0;" parent="1" source="Uy-U2TZosP5Rp6WqDtDl-24" target="Uy-U2TZosP5Rp6WqDtDl-26" edge="1"><mxGeometry width="50" height="50" relative="1" as="geometry"><mxPoint x="590" y="180" as="sourcePoint"/><mxPoint x="640" y="130" as="targetPoint"/></mxGeometry></mxCell><mxCell id="Uy-U2TZosP5Rp6WqDtDl-31" value="Родитель" style="shape=umlActor;verticalLabelPosition=bottom;verticalAlign=top;html=1;" parent="1" vertex="1"><mxGeometry x="10" y="515" width="30" height="60" as="geometry"/></mxCell><mxCell id="Uy-U2TZosP5Rp6WqDtDl-33" value="Просмотр посещаемости" style="ellipse;whiteSpace=wrap;html=1;" parent="1" vertex="1"><mxGeometry x="90" y="705" width="170" height="60" as="geometry"/></mxCell><mxCell id="Uy-U2TZosP5Rp6WqDtDl-36" value="" style="endArrow=classic;html=1;rounded=0;exitX=1;exitY=0.3333333333333333;exitDx=0;exitDy=0;exitPerimeter=0;entryX=0;entryY=0.5;entryDx=0;entryDy=0;" parent="1" source="Uy-U2TZosP5Rp6WqDtDl-31" target="Uy-U2TZosP5Rp6WqDtDl-33" edge="1"><mxGeometry width="50" height="50" relative="1" as="geometry"><mxPoint x="180" y="415" as="sourcePoint"/><mxPoint x="230" y="365" as="targetPoint"/></mxGeometry></mxCell><mxCell id="Uy-U2TZosP5Rp6WqDtDl-38" value="Ученик" style="shape=umlActor;verticalLabelPosition=bottom;verticalAlign=top;html=1;" parent="1" vertex="1"><mxGeometry x="610" y="600" width="30" height="60" as="geometry"/></mxCell><mxCell id="Uy-U2TZosP5Rp6WqDtDl-39" value="Просмотр оценок" style="ellipse;whiteSpace=wrap;html=1;" parent="1" vertex="1"><mxGeometry x="420" y="455" width="170" height="60" as="geometry"/></mxCell><mxCell id="Uy-U2TZosP5Rp6WqDtDl-40" value="Просмотр расписания" style="ellipse;whiteSpace=wrap;html=1;" parent="1" vertex="1"><mxGeometry x="647" y="455" width="170" height="60" as="geometry"/></mxCell><mxCell id="Uy-U2TZosP5Rp6WqDtDl-41" value="Просмотр домашних заданий" style="ellipse;whiteSpace=wrap;html=1;" parent="1" vertex="1"><mxGeometry x="350" y="725" width="170" height="60" as="geometry"/></mxCell><mxCell id="Uy-U2TZosP5Rp6WqDtDl-43" value="" style="endArrow=classic;html=1;rounded=0;exitX=0;exitY=0.3333333333333333;exitDx=0;exitDy=0;exitPerimeter=0;entryX=0.5;entryY=1;entryDx=0;entryDy=0;" parent="1" source="Uy-U2TZosP5Rp6WqDtDl-38" target="Uy-U2TZosP5Rp6WqDtDl-39" edge="1"><mxGeometry width="50" height="50" relative="1" as="geometry"><mxPoint x="240" y="745" as="sourcePoint"/><mxPoint x="290" y="695" as="targetPoint"/></mxGeometry></mxCell><mxCell id="Uy-U2TZosP5Rp6WqDtDl-44" value="" style="endArrow=classic;html=1;rounded=0;exitX=0;exitY=0.3333333333333333;exitDx=0;exitDy=0;exitPerimeter=0;entryX=0.5;entryY=0;entryDx=0;entryDy=0;" parent="1" source="Uy-U2TZosP5Rp6WqDtDl-38" target="Uy-U2TZosP5Rp6WqDtDl-41" edge="1"><mxGeometry width="50" height="50" relative="1" as="geometry"><mxPoint x="240" y="745" as="sourcePoint"/><mxPoint x="290" y="695" as="targetPoint"/></mxGeometry></mxCell><mxCell id="Uy-U2TZosP5Rp6WqDtDl-45" value="" style="endArrow=classic;html=1;rounded=0;exitX=1;exitY=0.3333333333333333;exitDx=0;exitDy=0;exitPerimeter=0;entryX=0.5;entryY=1;entryDx=0;entryDy=0;" parent="1" source="Uy-U2TZosP5Rp6WqDtDl-38" target="Uy-U2TZosP5Rp6WqDtDl-40" edge="1"><mxGeometry width="50" height="50" relative="1" as="geometry"><mxPoint x="240" y="745" as="sourcePoint"/><mxPoint x="290" y="695" as="targetPoint"/></mxGeometry></mxCell><mxCell id="6NTMlgioZcefWaK-4eRb-2" value="" style="endArrow=classic;html=1;rounded=0;exitX=1;exitY=0.3333333333333333;exitDx=0;exitDy=0;exitPerimeter=0;entryX=0;entryY=0.5;entryDx=0;entryDy=0;" parent="1" source="Uy-U2TZosP5Rp6WqDtDl-31" target="Uy-U2TZosP5Rp6WqDtDl-41" edge="1"><mxGeometry width="50" height="50" relative="1" as="geometry"><mxPoint x="380" y="665" as="sourcePoint"/><mxPoint x="430" y="615" as="targetPoint"/></mxGeometry></mxCell><mxCell id="6NTMlgioZcefWaK-4eRb-3" value="" style="endArrow=classic;html=1;rounded=0;exitX=1;exitY=0.3333333333333333;exitDx=0;exitDy=0;exitPerimeter=0;entryX=0;entryY=0.5;entryDx=0;entryDy=0;" parent="1" source="Uy-U2TZosP5Rp6WqDtDl-31" target="Uy-U2TZosP5Rp6WqDtDl-39" edge="1"><mxGeometry width="50" height="50" relative="1" as="geometry"><mxPoint x="330" y="665" as="sourcePoint"/><mxPoint x="380" y="615" as="targetPoint"/></mxGeometry></mxCell><mxCell id="6NTMlgioZcefWaK-4eRb-6" value="" style="endArrow=classic;html=1;rounded=0;exitX=0;exitY=0.3333333333333333;exitDx=0;exitDy=0;exitPerimeter=0;entryX=0.5;entryY=0;entryDx=0;entryDy=0;" parent="1" source="Uy-U2TZosP5Rp6WqDtDl-8" target="Uy-U2TZosP5Rp6WqDtDl-39" edge="1"><mxGeometry width="50" height="50" relative="1" as="geometry"><mxPoint x="80" y="305" as="sourcePoint"/><mxPoint x="380" y="415" as="targetPoint"/></mxGeometry></mxCell><mxCell id="6NTMlgioZcefWaK-4eRb-7" value="" style="endArrow=classic;html=1;rounded=0;exitX=0;exitY=0.3333333333333333;exitDx=0;exitDy=0;exitPerimeter=0;entryX=0.5;entryY=0;entryDx=0;entryDy=0;" parent="1" source="Uy-U2TZosP5Rp6WqDtDl-8" target="Uy-U2TZosP5Rp6WqDtDl-41" edge="1"><mxGeometry width="50" height="50" relative="1" as="geometry"><mxPoint x="80" y="305" as="sourcePoint"/><mxPoint x="380" y="415" as="targetPoint"/></mxGeometry></mxCell></root></mxGraphModel>